<svg width="47" height="49" fill="none" xmlns="http://www.w3.org/2000/svg"><path d="M17.406 16.715c-.322.825-.637 1.65-.947 2.475-.767 2.018-1.574 4.03-2.3 6.06-.175.492-.585.867-1.129.867h-9.5c-.24 0-.468-.07-.644-.193-.234-.158-.374-.398-.491-.673a1.402 1.402 0 0 1 .105-.872c.006-.012.012-.017.017-.029C4.01 21.5 5.49 18.646 7.01 15.814c.193-.356.615-.579 1.013-.579h8.254c.696 0 1.41.76 1.13 1.48Z" fill="url(#a)"/><path d="M18.16 47.06c-1.099-1.263-2.193-2.527-3.293-3.79-1.93-2.224-3.867-4.447-5.797-6.67l-2.95-3.387c-.947-1.083-1.93-2.147-2.837-3.265-.304-.374-.439-.819-.24-1.287.181-.427.603-.731 1.07-.731h8.91c.533 0 .966.38 1.13.872 1.532 4.551 3.17 9.08 4.75 13.613 0 .006.006.018.006.024a602.97 602.97 0 0 0 1.217 3.48c.368 1.089-1.205 2.007-1.966 1.141Z" fill="url(#b)"/><path d="M30.365 26.116h-13.01c-.708 0-1.399-.76-1.13-1.486.287-.772.58-1.544.872-2.31.79-2.077 1.527-4.183 2.381-6.231.2-.486.562-.86 1.13-.86h6.51c.556 0 .937.374 1.13.86.561 1.404 1.082 2.826 1.62 4.241.544 1.434 1.106 2.861 1.632 4.3.258.726-.427 1.486-1.134 1.486h-.001Z" fill="url(#c)"/><path d="M31.523 29.422a1183.33 1183.33 0 0 0-2.229 6.388v.012c0 .012-.006.018-.012.03-1.433 4.1-2.86 8.201-4.294 12.303a1.182 1.182 0 0 1-2.258 0c-.48-1.37-.954-2.738-1.433-4.107-.854-2.446-1.703-4.891-2.557-7.336-.848-2.422-1.725-4.844-2.539-7.278-.245-.731.404-1.498 1.13-1.498h13.063c.72-.006 1.387.76 1.13 1.486h-.001Z" fill="url(#d)"/><path d="M44.651 29.662c0 .006-.006.012-.006.017a1.5 1.5 0 0 1-.193.281c-1.123 1.223-2.188 2.504-3.282 3.756-3.872 4.446-7.745 8.898-11.612 13.35-.76.872-2.334-.052-1.954-1.14.439-1.264.878-2.528 1.322-3.791 1.55-4.44 3.124-8.881 4.669-13.327.17-.492.585-.872 1.129-.872h8.904c.398 0 .731.199.942.491.105.153.181.328.21.521.03.24-.017.492-.128.714Z" fill="url(#e)"/><path d="M44.19 26.116h-9.501c-.55 0-.942-.374-1.13-.86a550.17 550.17 0 0 1-1.081-2.843c-.72-1.901-1.44-3.797-2.165-5.698-.275-.725.427-1.48 1.13-1.48h.9c2.451 0 4.908.03 7.36-.012.397-.006.825.223 1.012.58 1.491 2.848 2.995 5.692 4.487 8.546.404.779-.094 1.767-1.012 1.767Z" fill="url(#f)"/><path d="M25.615 8.718V1.756c0-.918-.808-1.796-1.755-1.755-.954.041-1.755.773-1.755 1.755v6.962c0 .919.807 1.796 1.755 1.755.953-.047 1.755-.772 1.755-1.755Z" fill="url(#g)"/><path d="M8.643 8.976C7.245 7.566 5.847 6.162 4.45 4.752a56.548 56.548 0 0 1-.591-.597c-.65-.649-1.843-.696-2.48 0-.644.702-.691 1.785 0 2.48 1.397 1.41 2.796 2.815 4.194 4.225.199.199.398.398.59.596.65.65 1.844.697 2.481 0 .65-.702.696-1.784 0-2.48Z" fill="url(#h)"/><path d="M41.556 11.462c1.398-1.41 2.796-2.814 4.195-4.224.198-.199.397-.398.59-.597.65-.649.702-1.837 0-2.48-.696-.644-1.79-.696-2.48 0-1.398 1.41-2.797 2.814-4.195 4.224-.199.199-.398.397-.59.596-.65.65-.703 1.837 0 2.48.696.639 1.79.691 2.48 0Z" fill="url(#i)"/><defs><linearGradient id="a" x1="3.025" y1="13.603" x2="18.415" y2="14.266" gradientUnits="userSpaceOnUse"><stop stop-color="#9E00FF"/><stop offset="1" stop-color="#6AC4F8"/></linearGradient><linearGradient id="b" x1="3.701" y1="25.009" x2="21.281" y2="25.491" gradientUnits="userSpaceOnUse"><stop stop-color="#9E00FF"/><stop offset="1" stop-color="#6AC4F8"/></linearGradient><linearGradient id="c" x1="16.836" y1="13.596" x2="32.519" y2="14.284" gradientUnits="userSpaceOnUse"><stop stop-color="#9E00FF"/><stop offset="1" stop-color="#6AC4F8"/></linearGradient><linearGradient id="d" x1="16.821" y1="24.779" x2="32.568" y2="25.137" gradientUnits="userSpaceOnUse"><stop stop-color="#9E00FF"/><stop offset="1" stop-color="#6AC4F8"/></linearGradient><linearGradient id="e" x1="28.297" y1="25.015" x2="45.889" y2="25.498" gradientUnits="userSpaceOnUse"><stop stop-color="#9E00FF"/><stop offset="1" stop-color="#6AC4F8"/></linearGradient><linearGradient id="f" x1="30.909" y1="13.589" x2="46.289" y2="14.25" gradientUnits="userSpaceOnUse"><stop stop-color="#9E00FF"/><stop offset="1" stop-color="#6AC4F8"/></linearGradient><linearGradient id="g" x1="22.257" y1="-1.571" x2="25.841" y2="-1.534" gradientUnits="userSpaceOnUse"><stop stop-color="#9E00FF"/><stop offset="1" stop-color="#6AC4F8"/></linearGradient><linearGradient id="h" x1="1.237" y1="2.404" x2="9.674" y2="2.665" gradientUnits="userSpaceOnUse"><stop stop-color="#9E00FF"/><stop offset="1" stop-color="#6AC4F8"/></linearGradient><linearGradient id="i" x1="38.929" y1="2.413" x2="47.375" y2="2.674" gradientUnits="userSpaceOnUse"><stop stop-color="#9E00FF"/><stop offset="1" stop-color="#6AC4F8"/></linearGradient></defs></svg>