<svg width="45" height="50" fill="none" xmlns="http://www.w3.org/2000/svg"><path d="M41.637 25.93c-.81-5.623-4.176-10.336-8.827-12.393l-3.216-1.421H15.406l-3.204 1.42c-4.65 2.058-8.017 6.77-8.827 12.393L.707 44.231c-.4 2.718 1.446 5.187 3.852 5.187H40.44c2.419 0 4.251-2.469 3.852-5.187L41.637 25.93ZM22.326 43.533c-6.695 0-12.118-5.424-12.118-12.118 0-6.695 5.423-12.118 12.118-12.118 6.694 0 12.117 5.423 12.117 12.118.013 6.695-5.423 12.118-12.117 12.118Z" fill="url(#a)"/><path d="M15.792 8.886h13.066l3.066-5.61c.325-.599-.261-1.297-.91-1.06l-4.5 1.62c-.3.1-.624.013-.823-.224L22.898.272a.742.742 0 0 0-1.147 0l-2.793 3.34a.741.741 0 0 1-.822.225l-4.501-1.621c-.648-.237-1.234.461-.91 1.06l3.067 5.61Z" fill="url(#b)"/><path d="M23.447 30.143c-1.696-.636-2.394-1.06-2.394-1.72 0-.561.424-1.122 1.72-1.122 1.434 0 2.357.46 2.868.673l.574-2.257c-.661-.324-1.559-.598-2.893-.66v-1.758h-1.957v1.895c-2.132.424-3.366 1.795-3.366 3.553 0 1.932 1.458 2.93 3.59 3.653 1.471.498 2.12.972 2.12 1.733 0 .798-.773 1.234-1.92 1.234-1.297 0-2.469-.424-3.317-.873l-.598 2.332c.76.436 2.057.797 3.391.86v1.895h1.957v-2.032c2.294-.4 3.554-1.92 3.554-3.69 0-1.784-.96-2.88-3.329-3.716Z" fill="url(#c)"/><defs><linearGradient id="a" x1="2.556" y1="6.52" x2="47.109" y2="8.139" gradientUnits="userSpaceOnUse"><stop stop-color="#9E00FF"/><stop offset="1" stop-color="#6AC4F8"/></linearGradient><linearGradient id="b" x1="13.477" y1="-1.333" x2="33.178" y2="0" gradientUnits="userSpaceOnUse"><stop stop-color="#9E00FF"/><stop offset="1" stop-color="#6AC4F8"/></linearGradient><linearGradient id="c" x1="18.262" y1="20.856" x2="27.348" y2="21.01" gradientUnits="userSpaceOnUse"><stop stop-color="#9E00FF"/><stop offset="1" stop-color="#6AC4F8"/></linearGradient></defs></svg>