<svg width="49" height="45" fill="none" xmlns="http://www.w3.org/2000/svg"><path d="M23.415 27.551a1.752 1.752 0 0 1-1.75 1.745H1.75a1.75 1.75 0 0 1-1.516-.872 1.741 1.741 0 0 1 0-1.745 1.75 1.75 0 0 1 1.516-.872h19.915a1.75 1.75 0 0 1 1.75 1.744Zm-1.75 5.235H7a1.75 1.75 0 0 0-1.516.872 1.741 1.741 0 0 0 0 1.745c.313.54.89.873 1.516.873h14.63a1.75 1.75 0 0 0 1.515-.873 1.741 1.741 0 0 0 0-1.745 1.752 1.752 0 0 0-1.515-.872h.035Zm0 6.98H12.25a1.75 1.75 0 0 0-1.515.872 1.74 1.74 0 0 0 0 1.745c.312.54.89.872 1.515.872h9.38c.625 0 1.203-.332 1.516-.872a1.74 1.74 0 0 0 0-1.745 1.752 1.752 0 0 0-1.516-.873h.035Zm27.3-13.96c0 5.091-2.029 9.973-5.638 13.573a19.28 19.28 0 0 1-13.612 5.62 20.044 20.044 0 0 1-3.867-.365 5.228 5.228 0 0 0-.28-6.666 5.226 5.226 0 0 0 1.364-3.49 5.124 5.124 0 0 0-1.364-3.49 5.225 5.225 0 0 0-.257-7.245 5.258 5.258 0 0 0-3.628-1.478H10.78a19.324 19.324 0 0 1 3.814-8.376l-2.345-2.338a1.743 1.743 0 0 1 1.243-2.976c.466 0 .914.185 1.243.516l2.31 2.303A19.435 19.435 0 0 1 28 6.7V3.49h-1.75a1.75 1.75 0 0 1-1.515-.873 1.741 1.741 0 0 1 0-1.745A1.75 1.75 0 0 1 26.25 0h6.808a1.75 1.75 0 0 1 1.515.872c.313.54.313 1.205 0 1.745a1.75 1.75 0 0 1-1.515.873H31.5v3.333c4.767.433 9.2 2.622 12.435 6.138A19.163 19.163 0 0 1 49 25.841l-.035-.035Zm-10.99-8.2a1.752 1.752 0 0 0-2.486 0l-7 6.98a1.743 1.743 0 0 0 2.468 2.46l7-6.98a1.74 1.74 0 0 0 .018-2.46Z" fill="url(#a)"/><defs><linearGradient id="a" x1="2.134" y1="-6.75" x2="52.106" y2="-5.062" gradientUnits="userSpaceOnUse"><stop stop-color="#9E00FF"/><stop offset="1" stop-color="#6AC4F8"/></linearGradient></defs></svg>