<svg width="59" height="59" fill="none" xmlns="http://www.w3.org/2000/svg"><path d="M58.848 22.294a2.95 2.95 0 0 0-2.35-1.979l-16.79-2.567L32.17 1.697a2.951 2.951 0 0 0-5.34 0l-7.536 16.051-16.79 2.567a2.95 2.95 0 0 0-1.667 4.976l12.236 12.54-2.893 17.743a2.946 2.946 0 0 0 1.213 2.887c.922.648 2.139.72 3.126.17l14.98-8.283 14.977 8.283a2.948 2.948 0 0 0 3.13-.17 2.955 2.955 0 0 0 1.212-2.887L45.926 37.83l12.235-12.54a2.948 2.948 0 0 0 .686-2.997h.001Z" fill="url(#a)"/><defs><linearGradient id="a" x1="2.57" y1="-8.85" x2="62.751" y2="-6.983" gradientUnits="userSpaceOnUse"><stop stop-color="#9E00FF"/><stop offset="1" stop-color="#6AC4F8"/></linearGradient></defs></svg>