<svg width="66" height="66" viewBox="0 0 66 66" fill="none" xmlns="http://www.w3.org/2000/svg">
<circle cx="33" cy="33" r="33" fill="#2F1D45"/>
<path d="M33.4163 50.4574C30.9769 50.4574 28.8043 50.0381 26.8985 49.1996C25.0036 48.3501 23.5062 47.1849 22.4063 45.7038C21.3173 44.2119 20.7565 42.4912 20.7238 40.5419H27.846C27.8895 41.3587 28.1563 42.0774 28.6464 42.6982C29.1473 43.308 29.8116 43.7817 30.6393 44.1193C31.4669 44.4569 32.3981 44.6257 33.4326 44.6257C34.5107 44.6257 35.4636 44.4351 36.2913 44.054C37.1189 43.6728 37.7669 43.1446 38.2352 42.4695C38.7035 41.7943 38.9376 41.0156 38.9376 40.1335C38.9376 39.2405 38.6871 38.451 38.1862 37.7649C37.6961 37.0679 36.9883 36.5234 36.0626 36.1314C35.1478 35.7393 34.0588 35.5433 32.7955 35.5433H29.6755V30.3487H32.7955C33.8628 30.3487 34.8048 30.1636 35.6215 29.7933C36.4492 29.4231 37.0917 28.9112 37.5491 28.2578C38.0065 27.5935 38.2352 26.8203 38.2352 25.9382C38.2352 25.0997 38.0337 24.3646 37.6308 23.733C37.2387 23.0904 36.6833 22.5895 35.9646 22.2301C35.2567 21.8707 34.4291 21.6911 33.4816 21.6911C32.5233 21.6911 31.6466 21.8653 30.8517 22.2138C30.0567 22.5514 29.4196 23.036 28.9404 23.6676C28.4613 24.2992 28.2053 25.0398 28.1727 25.8892H21.3936C21.4262 23.9616 21.9762 22.2628 23.0434 20.7926C24.1106 19.3224 25.5481 18.1735 27.3559 17.3459C29.1746 16.5073 31.2274 16.0881 33.5143 16.0881C35.823 16.0881 37.8431 16.5073 39.5747 17.3459C41.3062 18.1844 42.6511 19.317 43.6095 20.7436C44.5787 22.1593 45.0579 23.7493 45.047 25.5135C45.0579 27.3866 44.4752 28.9493 43.2991 30.2017C42.1338 31.4541 40.6147 32.2491 38.7416 32.5866V32.848C41.2027 33.1638 43.0758 34.0187 44.3609 35.4126C45.6568 36.7957 46.2993 38.5272 46.2884 40.6072C46.2993 42.513 45.7494 44.2064 44.6386 45.6875C43.5387 47.1686 42.0195 48.3338 40.0811 49.1832C38.1426 50.0327 35.921 50.4574 33.4163 50.4574Z" fill="url(#paint0_linear_61_6)"/>
<defs>
<linearGradient id="paint0_linear_61_6" x1="19.3504" y1="-3.40004" x2="50.992" y2="-2.85662" gradientUnits="userSpaceOnUse">
<stop stop-color="#9E00FF"/>
<stop offset="1" stop-color="#6AC4F8"/>
</linearGradient>
</defs>
</svg>
