<svg width="36" height="21" viewBox="0 0 36 21" fill="none" xmlns="http://www.w3.org/2000/svg">
<path d="M0.000187838 10.5023C0.0148362 10.8777 0.169377 11.3116 0.426816 11.5852L8.82673 20.5102C9.3958 21.0218 10.4875 21.2327 11.1235 20.6413C11.7501 20.0587 11.7314 18.9293 11.1074 18.3445L5.20136 12.0773L34.1242 12.0773C34.9939 12.0773 35.6992 11.372 35.6992 10.5023C35.6992 9.63253 34.9939 8.92723 34.1242 8.92723L5.20136 8.92723L11.1074 2.66006C11.645 2.12174 11.7442 0.952081 11.1235 0.363256C10.5032 -0.225962 9.37272 -0.0377278 8.82673 0.494716L0.426816 9.41971C0.139352 9.72512 -0.000540733 10.0836 0.000187838 10.5026L0.000187838 10.5023Z" fill="white"/>
</svg>
