<svg width="41" height="49" fill="none" xmlns="http://www.w3.org/2000/svg"><path d="M38.805 7.829a39.292 39.292 0 0 1-8.59-2.354A39.3 39.3 0 0 1 21.133.342a1.687 1.687 0 0 0-2.035 0 39.294 39.294 0 0 1-17.67 7.487A1.689 1.689 0 0 0 0 9.496v19.386a20.118 20.118 0 1 0 40.236 0V9.492a1.69 1.69 0 0 0-1.432-1.665Zm-5.996 10.188L17.462 33.364a1.69 1.69 0 0 1-2.385 0l-7.653-7.648A1.69 1.69 0 0 1 9.81 23.33l6.457 6.458 14.154-14.155a1.69 1.69 0 0 1 2.388 2.383Z" fill="url(#a)"/><defs><linearGradient id="a" x1="1.753" y1="-7.35" x2="42.806" y2="-6.304" gradientUnits="userSpaceOnUse"><stop stop-color="#9E00FF"/><stop offset="1" stop-color="#6AC4F8"/></linearGradient></defs></svg>