<svg width="66" height="66" viewBox="0 0 66 66" fill="none" xmlns="http://www.w3.org/2000/svg">
<circle cx="33" cy="33" r="33" fill="#2F1D45"/>
<path d="M21.7243 50V44.9034L33.6327 33.8771C34.6455 32.897 35.4949 32.0149 36.181 31.2308C36.878 30.4467 37.4062 29.679 37.7655 28.9276C38.1249 28.1652 38.3046 27.343 38.3046 26.4609C38.3046 25.4808 38.0814 24.6368 37.6349 23.929C37.1884 23.2102 36.5785 22.6603 35.8053 22.2791C35.0321 21.8871 34.1555 21.6911 33.1753 21.6911C32.1517 21.6911 31.2587 21.898 30.4964 22.3118C29.734 22.7256 29.146 23.3191 28.7322 24.0923C28.3183 24.8655 28.1114 25.7857 28.1114 26.853H21.3976C21.3976 24.6641 21.8931 22.7637 22.8841 21.152C23.8751 19.5402 25.2636 18.2933 27.0496 17.4112C28.8356 16.5291 30.8939 16.0881 33.2243 16.0881C35.6202 16.0881 37.7056 16.5128 39.4807 17.3622C41.2667 18.2008 42.6552 19.366 43.6462 20.858C44.6372 22.3499 45.1327 24.0597 45.1327 25.9872C45.1327 27.2505 44.8823 28.4974 44.3813 29.728C43.8912 30.9586 43.0146 32.3253 41.7513 33.8281C40.4881 35.3201 38.7075 37.1115 36.4097 39.2024L31.5255 43.9886V44.2173H45.5738V50H21.7243Z" fill="url(#paint0_linear_61_7)"/>
<defs>
<linearGradient id="paint0_linear_61_7" x1="20.2633" y1="-3.40004" x2="49.8646" y2="-2.92446" gradientUnits="userSpaceOnUse">
<stop stop-color="#9E00FF"/>
<stop offset="1" stop-color="#6AC4F8"/>
</linearGradient>
</defs>
</svg>
